<?xml version="1.0" standalone="no"?>
<!DOCTYPE svg PUBLIC "-//W3C//DTD SVG 20010904//EN"
 "http://www.w3.org/TR/2001/REC-SVG-20010904/DTD/svg10.dtd">
<svg version="1.0" xmlns="http://www.w3.org/2000/svg"
 width="32.000000pt" height="32.000000pt" viewBox="0 0 32.000000 32.000000"
 preserveAspectRatio="xMidYMid meet">

<g transform="translate(0.000000,32.000000) scale(0.100000,-0.100000)"
fill="#000000" stroke="none">
<path d="M0 160 l0 -160 160 0 160 0 0 160 0 160 -160 0 -160 0 0 -160z m104
27 c12 -47 20 -47 32 1 5 22 15 37 24 37 9 0 19 -15 24 -37 12 -47 22 -48 30
-3 6 33 22 53 32 42 3 -3 -3 -34 -13 -68 -22 -74 -43 -84 -57 -26 -5 20 -12
37 -16 37 -4 0 -11 -17 -16 -37 -14 -57 -35 -48 -56 22 -21 72 -22 78 -5 73 6
-3 16 -21 21 -41z"/>
</g>
</svg>
